<?xml version="1.0" encoding="utf-8"?>
<!-- Generator: Adobe Illustrator 21.1.0, SVG Export Plug-In . SVG Version: 6.00 Build 0)  -->
<svg version="1.1" id="Слой_1" xmlns="http://www.w3.org/2000/svg" xmlns:xlink="http://www.w3.org/1999/xlink" x="0px" y="0px"
	 viewBox="0 0 16 16" style="enable-background:new 0 0 16 16;" xml:space="preserve">
<style type="text/css">
	.st0{fill:#FFFFFF;}
	.st1{fill:#E53835;}
	.st2{fill:url(#SVGID_1_);}
	.st3{fill:url(#SVGID_2_);}
	.st4{fill:url(#SVGID_3_);}
	.st5{fill:url(#SVGID_4_);}
	.st6{fill:url(#SVGID_5_);}
</style>
<rect x="-42.8" y="-35.8" class="st0" width="67.6" height="67.6"/>
<g>
	<g>
		<path class="st1" d="M0.2,8c0,4.4,3.6,8,8,8c3,0,5.6-1.7,7-4.1H7.6c-0.3,0-0.5-0.1-0.7-0.4c-0.3,0.2-0.6,0.3-1,0.3H4.7
			c-0.8,0-1.4-0.6-1.4-1.4v-2c0-1,0.6-1.9,1.4-2.4H4C3.9,6,3.8,5.9,3.8,5.8v0c0.2-0.4,0.5-0.7,1-0.7h0c0.2,0,0.3,0.1,0.3,0.3h0.3
			l1-1.9C6.6,3.2,6.9,3,7.3,3c0.6-0.1,1.8-0.2,4.2-0.2c1.2,0,2.1,0,2.8,0.1C12.8,1.1,10.6,0,8.2,0C3.8,0,0.2,3.6,0.2,8z M3.6,12.1H6
			v0.4c0,0.4-0.3,0.7-0.7,0.7H4.3c-0.4,0-0.7-0.3-0.7-0.7V12.1z"/>
		<path class="st1" d="M5.9,5.3l0.9-1.6c0.1-0.2,0.3-0.4,0.6-0.4c0.6-0.1,1.8-0.2,4.2-0.2c1.4,0,2.4,0,3.1,0.1
			c0.5,0.7,0.9,1.5,1.2,2.3H6C5.9,5.6,5.8,5.4,5.9,5.3z"/>
		<path class="st1" d="M6.3,10.2c0.2,0,0.3,0.2,0.2,0.3c-0.1,0.4-0.5,0.7-0.9,0.7h-1c-0.2,0-0.4-0.2-0.4-0.4v-0.3
			c0-0.2,0.2-0.4,0.4-0.4H6.3z"/>
		<path class="st1" d="M14.2,10.1c0.1,0,0.2,0.1,0.1,0.2l0,0.1c-0.1,0.2-0.3,0.3-0.5,0.3H9.2c-0.2,0-0.4-0.1-0.5-0.3l0-0.1
			c-0.1-0.1,0-0.2,0.1-0.2H14.2z"/>
		<path class="st1" d="M5.2,6.9c0.4,0,0.8,0.3,0.8,0.8v1.1C5.9,9,5.8,9.1,5.7,9L4.5,8.7c-0.1,0-0.1-0.1-0.1-0.2V7.7
			C4.4,7.3,4.7,6.9,5.2,6.9z"/>
	</g>
	<g>
		
			<linearGradient id="SVGID_1_" gradientUnits="userSpaceOnUse" x1="2.394264e-02" y1="8" x2="15.6446" y2="8" gradientTransform="matrix(-1 0 0 1 15.8343 0)">
			<stop  offset="0" style="stop-color:#FFEF26"/>
			<stop  offset="5.948725e-02" style="stop-color:#FFE000"/>
			<stop  offset="0.1303" style="stop-color:#FFD300"/>
			<stop  offset="0.2032" style="stop-color:#FECB00"/>
			<stop  offset="0.2809" style="stop-color:#FDC800"/>
			<stop  offset="0.6685" style="stop-color:#F18F34"/>
			<stop  offset="0.8876" style="stop-color:#E95F32"/>
			<stop  offset="1" style="stop-color:#E3312D"/>
		</linearGradient>
		<path class="st2" d="M0.2,8c0,4.4,3.6,8,8,8c3,0,5.6-1.7,7-4.1H7.6c-0.3,0-0.5-0.1-0.7-0.4c-0.3,0.2-0.6,0.3-1,0.3H4.7
			c-0.8,0-1.4-0.6-1.4-1.4v-2c0-1,0.6-1.9,1.4-2.4H4C3.9,6,3.8,5.9,3.8,5.8v0c0.2-0.4,0.5-0.7,1-0.7h0c0.2,0,0.3,0.1,0.3,0.3h0.3
			l1-1.9C6.6,3.2,6.9,3,7.3,3c0.6-0.1,1.8-0.2,4.2-0.2c1.2,0,2.1,0,2.8,0.1C12.8,1.1,10.6,0,8.2,0C3.8,0,0.2,3.6,0.2,8z M3.6,12.1H6
			v0.4c0,0.4-0.3,0.7-0.7,0.7H4.3c-0.4,0-0.7-0.3-0.7-0.7V12.1z"/>
		
			<linearGradient id="SVGID_2_" gradientUnits="userSpaceOnUse" x1="2.394264e-02" y1="8" x2="15.6446" y2="8" gradientTransform="matrix(-1 0 0 1 15.8343 0)">
			<stop  offset="0" style="stop-color:#FFEF26"/>
			<stop  offset="5.948725e-02" style="stop-color:#FFE000"/>
			<stop  offset="0.1303" style="stop-color:#FFD300"/>
			<stop  offset="0.2032" style="stop-color:#FECB00"/>
			<stop  offset="0.2809" style="stop-color:#FDC800"/>
			<stop  offset="0.6685" style="stop-color:#F18F34"/>
			<stop  offset="0.8876" style="stop-color:#E95F32"/>
			<stop  offset="1" style="stop-color:#E3312D"/>
		</linearGradient>
		<path class="st3" d="M5.9,5.3l0.9-1.6c0.1-0.2,0.3-0.4,0.6-0.4c0.6-0.1,1.8-0.2,4.2-0.2c1.4,0,2.4,0,3.1,0.1
			c0.5,0.7,0.9,1.5,1.2,2.3H6C5.9,5.6,5.8,5.4,5.9,5.3z"/>
		
			<linearGradient id="SVGID_3_" gradientUnits="userSpaceOnUse" x1="2.394264e-02" y1="8" x2="15.6446" y2="8" gradientTransform="matrix(-1 0 0 1 15.8343 0)">
			<stop  offset="0" style="stop-color:#FFEF26"/>
			<stop  offset="5.948725e-02" style="stop-color:#FFE000"/>
			<stop  offset="0.1303" style="stop-color:#FFD300"/>
			<stop  offset="0.2032" style="stop-color:#FECB00"/>
			<stop  offset="0.2809" style="stop-color:#FDC800"/>
			<stop  offset="0.6685" style="stop-color:#F18F34"/>
			<stop  offset="0.8876" style="stop-color:#E95F32"/>
			<stop  offset="1" style="stop-color:#E3312D"/>
		</linearGradient>
		<path class="st4" d="M6.3,10.2c0.2,0,0.3,0.2,0.2,0.3c-0.1,0.4-0.5,0.7-0.9,0.7h-1c-0.2,0-0.4-0.2-0.4-0.4v-0.3
			c0-0.2,0.2-0.4,0.4-0.4H6.3z"/>
		
			<linearGradient id="SVGID_4_" gradientUnits="userSpaceOnUse" x1="2.394264e-02" y1="8" x2="15.6446" y2="8" gradientTransform="matrix(-1 0 0 1 15.8343 0)">
			<stop  offset="0" style="stop-color:#FFEF26"/>
			<stop  offset="5.948725e-02" style="stop-color:#FFE000"/>
			<stop  offset="0.1303" style="stop-color:#FFD300"/>
			<stop  offset="0.2032" style="stop-color:#FECB00"/>
			<stop  offset="0.2809" style="stop-color:#FDC800"/>
			<stop  offset="0.6685" style="stop-color:#F18F34"/>
			<stop  offset="0.8876" style="stop-color:#E95F32"/>
			<stop  offset="1" style="stop-color:#E3312D"/>
		</linearGradient>
		<path class="st5" d="M14.2,10.1c0.1,0,0.2,0.1,0.1,0.2l0,0.1c-0.1,0.2-0.3,0.3-0.5,0.3H9.2c-0.2,0-0.4-0.1-0.5-0.3l0-0.1
			c-0.1-0.1,0-0.2,0.1-0.2H14.2z"/>
		
			<linearGradient id="SVGID_5_" gradientUnits="userSpaceOnUse" x1="2.394264e-02" y1="8" x2="15.6446" y2="8" gradientTransform="matrix(-1 0 0 1 15.8343 0)">
			<stop  offset="0" style="stop-color:#FFEF26"/>
			<stop  offset="5.948725e-02" style="stop-color:#FFE000"/>
			<stop  offset="0.1303" style="stop-color:#FFD300"/>
			<stop  offset="0.2032" style="stop-color:#FECB00"/>
			<stop  offset="0.2809" style="stop-color:#FDC800"/>
			<stop  offset="0.6685" style="stop-color:#F18F34"/>
			<stop  offset="0.8876" style="stop-color:#E95F32"/>
			<stop  offset="1" style="stop-color:#E3312D"/>
		</linearGradient>
		<path class="st6" d="M5.2,6.9c0.4,0,0.8,0.3,0.8,0.8v1.1C5.9,9,5.8,9.1,5.7,9L4.5,8.7c-0.1,0-0.1-0.1-0.1-0.2V7.7
			C4.4,7.3,4.7,6.9,5.2,6.9z"/>
	</g>
</g>
</svg>
